/* XPM */
static char *_555205679881[] = {
/* columns rows colors chars-per-pixel */
"64 64 12 1 ",
"  c black",
". c #010101",
"X c #040403",
"o c #040404",
"O c #050504",
"+ c gray2",
"@ c #060605",
"# c #060606",
"$ c #070706",
"% c #070707",
"& c gray3",
"* c None",
/* pixels */
"****************************************************************",
"****************************************************************",
"****************************************************************",
"****************************************************************",
"****************************************************************",
"****************************************************************",
"****************************************************************",
"****************************************************************",
"*********************************************************.....**",
"********************************************************.......*",
"*******************************************************.........",
"******************************************************..........",
"*****************************************************...........",
"****************************************************...........*",
"***************************************************............*",
"**************************************************............**",
"*************************************************............***",
"************************************************............****",
"***********************************************............*****",
"**********************************************............******",
"*********************************************............*******",
"********************************************............********",
"*******************************************............*********",
"******************************************............**********",
"*****************************************............***********",
"****************************************............************",
"***************************************............*************",
"**************************************............**************",
"********************************oo..*............***************",
"*******************************oo...............****************",
"*******************************X...............*****************",
"*******************************...............******************",
"********************************.............*******************",
"************************************........********************",
"*************************************......*********************",
"**************************************....X*********************",
"************************oX....********...Xo%********************",
"**********************ooo.......*******.Xooo********************",
"*********************oo...........*****Xoooo********************",
"*******************&ooX...........*****oooX.********************",
"******************&ooX.............*****oX.*********************",
"******************ooX..............*****************************",
"*****************ooX...............o****************************",
"****************ooo...............Xo****************************",
"****************o.................oo****************************",
"***************oX...............Xooo****************************",
"***************o...............Xoooo****************************",
"**************................XoooX.****************************",
"**************...............Xooo..*****************************",
"*************...............XoooX..*****************************",
"*************...............ooo....*****************************",
"************..............XoooX...******************************",
"************..............oooX....******************************",
"***********.............XoooX....*******************************",
"**********.............XoooX....********************************",
"**********............XoooX....*********************************",
"*********.............ooo.....**********************************",
"********............XoooX....***********************************",
"******.............XoooX....************************************",
"***...............ooooo..***************************************",
"****************************************************************",
"****************************************************************",
"****************************************************************",
"****************************************************************"
};
