/* XPM */
static char *_555205687488[] = {
/* columns rows colors chars-per-pixel */
"64 64 75 1 ",
"  c #2B2D2E",
". c #2E2F30",
"X c #2F3030",
"o c #313131",
"O c #343738",
"+ c #36393A",
"@ c #3A3B3C",
"# c #3D4143",
"$ c #444647",
"% c #474C4E",
"& c #484C4E",
"* c #4B4F50",
"= c #4E5152",
"- c #505354",
"; c #55595B",
": c #5D6265",
"> c #66696B",
", c #666D70",
"< c #6A6F72",
"1 c #727576",
"2 c #747778",
"3 c #72797C",
"4 c #7D7E7E",
"5 c #7E8588",
"6 c #84898B",
"7 c #888C8F",
"8 c #8F9598",
"9 c #939595",
"0 c #94989A",
"q c gray62",
"w c #9CA2A5",
"e c #9CA5A9",
"r c #A3A3A4",
"t c #ACADAE",
"y c #A4AEB3",
"u c #ADB1B3",
"i c #AEB6B9",
"p c #B2B4B5",
"a c #B0B7BB",
"s c #B4BABD",
"d c #BBBDBE",
"f c #B4BEC2",
"g c #B9BEC1",
"h c #B7C0C4",
"j c #BCC2C5",
"k c #BDC6CA",
"l c #BFC8CD",
"z c #C2C4C5",
"x c #C3C6C8",
"c c #C4CACD",
"v c #C8CCCF",
"b c #C3CFD4",
"n c #C8CFD3",
"m c #CBD2D5",
"M c #C7D3D8",
"N c #CCD6DB",
"B c #CFD9DE",
"V c #D2DADE",
"C c #D3D4D5",
"Z c #CDDAE0",
"A c #D3DDE2",
"S c #D9DFE2",
"D c #D6E1E5",
"F c #D9E2E6",
"G c #DCE5E9",
"H c #E3EAED",
"J c #E9EBEC",
"K c #E7EDF0",
"L c #E9EEF1",
"P c #ECF1F3",
"I c #F2F5F7",
"U c #F5F7F8",
"Y c #F7F9FA",
"T c #FBFCFC",
"R c None",
/* pixels */
"RRRRRRRRRRRRRRRRRRRRRRRRRRRRRRRRRRRRRRRRRRRRRRRRRRRRRRRRRRRRRRRR",
"RRRRRRRRRRRRRRRRRRRRRRRRRRRRRRRRRRRRRRRRRRRRRRRRRRRRRRRRRRRRRRRR",
"RRRRRRRRRRRRRRRRRRRRRRRRRRRRRRRRRRRRRRRRRRRRRRRRRRRRRRRRRRRRRRRR",
"RRRRRRRRRRRRRRRRRRRRRRRRRRRRRRRRRRRRRRRRRRRRRRRRRRRRRRRRRRRRRRRR",
"RRRRRRRRRRRRRRRRRRRRRRRRRRRRRRRRRRRRRRRRRRRRRRRRRRRRRRRRRRRRRRRR",
"RRRRRRRRRRRRRRRRRRRRRRRRRRRRRRRRRRRRRRRRRRRRRRRRRRRRRRRRRRRRRRRR",
"RRRRRRRRRRRRRRRRRRRRRRRRRRRRRRRRRRRRRRRRRRRRRRRRRRRRRRRRRRRRRRRR",
"RRRRRRRRRRRRRRRRRRRRRRRRRRRRRRRRRRRRRRRRRRRRRRRRRRRRRRRRRRRRRRRR",
"RRRRRRRRRRRRRRRRRRRRRRRRRRRRRRRRRRRRRRRRRRRRRRRRRRRRRRRRRRRRRRRR",
"RRRRRRRRRRRRRRRRRRRRRRRRRRRRRRRRRRRRRRRRRRRRRRRRRRRRRRRRRRRRRRRR",
"RRRRRRRRRRRRRRRRRRRRRRRRRRRRRRRRRRRRRRRRRRRRRRRRRRRRRRRRRRRRRRRR",
"RRRRRRRRRRRRRRRRRRRRRRRRRRRRRRRRRRRRRRRRRRRRRRRRRRRRRRRRRRRRRRRR",
"RRRRRRRRRRRRRRRRRRRRRRRRRRRRRRAZAZRRRRRRRRRRRRRRRRRRRRRRRRRRRRRR",
"RRRRRRRRRRRRRRRRRRRRRRRRRRRRRBDsfDARRRRRRRRRRRRRRRRRRRRRRRRRRRRR",
"RRRRRRRRRRRRRRRRRRRRRRRRRRRRDD<  ,DNRRRRRRRRRRRRRRRRRRRRRRRRRRRR",
"RRRRRRRRRRRRRRRRRRRRRRRRRRRRDD    lDtRRRRRRRRRRRRRRRRRRRRRRRRRRR",
"RRRRRRRRRRRRRRRRRRRRRRRRRRRRGD    iFpRRRRRRRRRRRRRRRRRRRRRRRRRRR",
"RRRRRRRRRRRRRRRRRRRRRRRRRRRRGG    iGpRRRRRRRRRRRRRRRRRRRRRRRRRRR",
"RRRRRRRRRRRRRRRRRRRRRRRRRGGGGG..  aGpRRRRRRRRRRRRRRRRRRRRRRRRRRR",
"RRRRRRRRRRRRRRRRRRRRRRRRGGc6bG  . aGpRRRRRRRRRRRRRRRRRRRRRRRRRRR",
"RRRRRRRRRRRRRRRRRRRRRRRGGk@ sG... sHpRRRRRRRRRRRRRRRRRRRRRRRRRRR",
"RRRRRRRRRRRRRRRRRRRRRRGGj+..sH....aHpRRRRRRRRRRRRRRRRRRRRRRRRRRR",
"RRRRRRRRRRRRRRRRRRRRRFGk@   sK....dHpRRRRRRRRRRRRRRRRRRRRRRRRRRR",
"RRRRRRRRRRRRRRRRRRRRGHk@ XXXdL....hKsRRRRRRRRRRRRRRRRRRRRRRRRRRR",
"RRRRRRRRRRRRRRRRRRRGGk+.....dLXX..jJxRRRRRRRRRRRRRRRRRRRRRRRRRRR",
"RRRRRRRRRRRRRRRRRRGGk@......dPXXXXdLPLLHHHHRRRRRRRRRRRRRRRRRRRRR",
"RRRRRRRRRRRRRRRRRFGk@ ...o..dIoooXjPcPPdHHHHGGRRRRRRRRRRRRRRRRRR",
"RRRRRRRRRRRRRRRRFGj@......X.zIoooojI@cP2X$>0mGGGFRRRRRRRRRRRRRRR",
"RRRRRRRRRRRRRRRFGk@  oo.o.o.zIoooozIo@nP1X. .=8NFDRRRRRRRRRRRRRR",
"RRRRRRRRRRRRRRDGh+ ..  Xo..ozIoooozIoo@vP2.. .XO6DDDRRRRRRRRRRRR",
"RRRRRRRRRRRRRDDh@ .Xo oX..oozUooooJzooo@vP2X.  . *hAARRRRRRRRRRR",
"RRRRRRRRRRRRADh+     o.Xoooo6Yt@#tY9oooo@cH2 X..  +fANRRRRRRRRRR",
"RRRRRRRRRRRAZf  .  XXXXXooooodTTTTCoooooX@cH2   X  +MZaRRRRRRRRR",
"RRRRRRRRRRZAf.    . X Xooooooo4dd4+ooooooX@cH2X     5AcRRRRRRRRR",
"RRRRRRRRRRZlO      X XXXooooooooooooooooX..@mV@     OZZRRRRRRRRR",
"RRRRRRRRRZZ;     X. .XXoooooooOoooooooooo...7H1     .eZiRRRRRRRR",
"RRRRRRRRRZy.     o  o oXoXoXooooooooooooXX..0Kw.     1ZkRRRRRRRR",
"RRRRRRRRZZ:.       X X ooooooooooooooooX...-SGa.     -ZlRRRRRRRR",
"RRRRRRRRZZO       X  oXXXoXoXoooooooooXXXX-FGHGX     XZNwRRRRRRR",
"RRRRRRRRZZ      X  X XX XXoXoooooooXoXXXX-SHDGG.      ZZqRRRRRRR",
"RRRRRRRRZZ          oo..X.XXooooooooXXXX-FHSrFG@      lZrRRRRRRR",
"RRRRRRRRZZ#        o  ...XXXXX.oooXoXXX-FJSrqFG;      yZuRRRRRRR",
"RRRRRRRRZZ,         .  o..XXXXXoXXXXXX-FJFrqRGG;      yZuRRRRRRR",
"RRRRRRRRRZh          X  XX .XXX.XXXXX-SJSrqRRGG;      yZtRRRRRRR",
"RRRRRRRRRZZ3         X XXXX.....XXXX-SJSrqRRRFD;      yZuRRRRRRR",
"RRRRRRRRRRZb#              X....XXo-SJSrqRRRRFD;     ,NZrRRRRRRR",
"RRRRRRRRRRZZb%        X  . . ...XX=VHSrqRRRRRDD;    ,ZZhqRRRRRRR",
"RRRRRRRRRRRZZb$         X  X  .. =VHVrqRRRRRRDD;   ;ZZcqRRRRRRRR",
"RRRRRRRRRRRRZZb*            . ..=SGSrqRRRRRRRDA   :ZZkqRRRRRRRRR",
"RRRRRRRRRRRRRZZb%            . *VGVrqRRRRRRRRAZ  :ZZlqRRRRRRRRRR",
"RRRRRRRRRRRRRRZZM%            =NFVrqRRRRRRRRRAZ ,ZZhqRRRRRRRRRRR",
"RRRRRRRRRRRRRRRZZl%.         *BFVrqRRRRRRRRRRZZ,ZZkeRRRRRRRRRRRR",
"RRRRRRRRRRRRRRRRZZZ3      ..3NDBrqRRRRRRRRRRRZZZZkqRRRRRRRRRRRRR",
"RRRRRRRRRRRRRRRRRZZZh1%  #3lAAnrqRRRRRRRRRRRRRZZhwRRRRRRRRRRRRRR",
"RRRRRRRRRRRRRRRRRRlBZZZZZZZZZgqqRRRRRRRRRRRRRRRqwRRRRRRRRRRRRRRR",
"RRRRRRRRRRRRRRRRRRRRabZZZZbfrqRRRRRRRRRRRRRRRRRRRRRRRRRRRRRRRRRR",
"RRRRRRRRRRRRRRRRRRRRRRqqqqqqRRRRRRRRRRRRRRRRRRRRRRRRRRRRRRRRRRRR",
"RRRRRRRRRRRRRRRRRRRRRRRRRRRRRRRRRRRRRRRRRRRRRRRRRRRRRRRRRRRRRRRR",
"RRRRRRRRRRRRRRRRRRRRRRRRRRRRRRRRRRRRRRRRRRRRRRRRRRRRRRRRRRRRRRRR",
"RRRRRRRRRRRRRRRRRRRRRRRRRRRRRRRRRRRRRRRRRRRRRRRRRRRRRRRRRRRRRRRR",
"RRRRRRRRRRRRRRRRRRRRRRRRRRRRRRRRRRRRRRRRRRRRRRRRRRRRRRRRRRRRRRRR",
"RRRRRRRRRRRRRRRRRRRRRRRRRRRRRRRRRRRRRRRRRRRRRRRRRRRRRRRRRRRRRRRR",
"RRRRRRRRRRRRRRRRRRRRRRRRRRRRRRRRRRRRRRRRRRRRRRRRRRRRRRRRRRRRRRRR",
"RRRRRRRRRRRRRRRRRRRRRRRRRRRRRRRRRRRRRRRRRRRRRRRRRRRRRRRRRRRRRRRR"
};
