/* XPM */
static char *_555205694364[] = {
/* columns rows colors chars-per-pixel */
"64 64 33 1 ",
"  c black",
". c #010100",
"X c #010101",
"o c #020201",
"O c #020202",
"+ c #030302",
"@ c gray1",
"# c #040403",
"$ c #040404",
"% c #050504",
"& c gray2",
"* c #060605",
"= c #070706",
"- c #070707",
"; c #080807",
": c gray3",
"> c #090908",
", c #090909",
"< c #0A0A09",
"1 c gray4",
"2 c #0B0B0A",
"3 c #0B0B0B",
"4 c #0C0C0B",
"5 c #0C0C0C",
"6 c #0D0D0C",
"7 c #0E0E0D",
"8 c #0F0F0E",
"9 c gray6",
"0 c #10100F",
"q c #101010",
"w c #121211",
"e c #131312",
"r c None",
/* pixels */
"rrrrrrrrrrrrrrrrrrrrrrrrrrrrrrrrrrrrrrrrrrrrrrrrrrrrrrrrrrrrrrrr",
"rrrrrrrrrrrrrrrrrrrrrrrrrrrrrrrrrrrrrrrrrrrrrrrrrrrrrrrrrrrrrrrr",
"rrrrrrrrrrrrrrrrrrrrrrrrrrrrrrrrrrrrrrrrrrrrrrrrrrrrrrrrrrrrrrrr",
"rrrrrrrrrrrrrrrrrrrrrrrrrrrrrrrrrrrrrrrrrrrrrrrrrrrrrrrrrrrrrrrr",
"rrrrrrrrrrrrrrrrrrrrrrrrrrrrrrrrrrrrrrrrrrrrrrrrrrrrrrrrrrrrrrrr",
"rrrrrrrrrrrrrrrrrrrrrrrrrrrrrrrrrrrrrrrrrrrrrrrrrrrrrrrrrrrrrrrr",
"rrrrrrrrrrrrrrrrrrrrrrrrrrrrrrrrrrrrrrrrrrrrrrrrrrrrrrrrrrrrrrrr",
"rrrrrrrrrrrrrrrrrrrrrrrrrrrrrrrrrrrrrrrrrrrrrrrrrrrrrrrrrrrrrrrr",
"rrrrrrrrrrrrrrrrrrrrrrrrrrrrrrrrrrrrrrrrrrrrrrrrrrrrrrrrrrrrrrrr",
"rrrrrrrrrrrrrrrrrrrrrrrrrrrrrrrrrrrrrrrrrrrrrrrrrrrrrrrrrrrrrrrr",
"rrrrrrrrrrrrrrrrrrrrrrrrrrrrrrrrrrrrrrrrrrrrrrrrrrrrrrrrrrrrrrrr",
"rrrrrrrrrrrrrrrrrrrrrrrrrrrrrrrrrrrrrrrrrrrrrrrrrrrrrrrrrrrrrrrr",
"rrrrrrrrrrrrrrrrrrrrrrrrrrrrrrrrrrrrrrrrrrrrrrrrrrrrrrrrrrrrrrrr",
"rrrrrrrrrrrrrrrrrrrrrrrrrrrrrrrrrrrrrrrrrrrrrrrrrrrrrrrrrrrrrrrr",
"rrrrrrrrrrrrrrrrrrrrrrrrrrrrrrrrrrrrrrrrrrrrrrrrrrrrrrrrrrrrrrrr",
"rrrrrrrrrrrrrrrrrrrrrrrrrrrrrrrrrrrrrrrrrrrrrrrrrrrrrrrrrrrrrrrr",
"rrrrrrrrrrrrrrrrrrrrrrrrrrrrrrrrrrrrrrrrrrrrrrrrrrrrrrrrrrrrrrrr",
"rrrrrrrrrrrrrrrrrrrrrr83 &# #      # & &8&rrrrrrrrrrrrrrrrrrrrrr",
"rrrrrrrrrrrrrrrrrr 3 #    #                 3 rrrrrrrrrrrrrrrrrr",
"rrrrrrrrrrrrrrr83   #        && &&&  #       # &wrrrrrrrrrrrrrrr",
"rrrrrrrrrrrrr&#      & 38rrrrrrrrrrrrrr8&3  &    &&rrrrrrrrrrrrr",
"rrrrrrrrrrre     #& rrrrrrrrrrrrrrrrrrrrrrrr ;     &#rrrrrrrrrrr",
"rrrrrrrrrr#     8rrrrrrrrrrrrrrrrrrrrrrrrrrrrrr0 &    rrrrrrrrrr",
"rrrrrrrr   # 3rrrrrrrrrrrrrrrrrrrrrrrrrrrrrrrrrrrr&   &&rrrrrrrr",
"rrrrrrr&  & rrrrrrrrrrrrrrrrrrrrrrrrrrrrrrrrrrrrrrrr&    rrrrrrr",
"rrrrrr    &rrrrrrrrrrrrrrrrrrrrrrrrrrrrrrrrrrrrrrrrrr&#  ;rrrrrr",
"rrrrr     rrrrrrrrrrrrrrrrrrrrrrrrrrrrrrrrrrrrrrrrrrrr#   8rrrrr",
"rrrrr & &rrrrrrrrrrrrrrrrrrrrrrrrrrrrrrrrrrrrrrrrrrrrrr3 & rrrrr",
"rrrr3 & rrrrrrrrrrrrrrrrrrrrrrrrrrrrrrrrrrrrrrrrrrrrrrrr;  3rrrr",
"rrrr   rrrrrrrrrrrrrrrrrrrrrrrrrrrrrrrrrrrrrrrrrrrrrrrrrr   rrrr",
"rrrr# &rrrrrrrrrrrrrrrrrrrrrrrrrrrrrrrrrrrrrrrrrrrrrrrrrr&  rrrr",
"rrr8   rrrrrrrrrrrrrrrrrrrrrrrrrrrrrrrrrrrrrrrrrrrrrrrrrr   wrrr",
"rrr3  &rrrrrrrrrrrrrrrrrrrrrrrrrrrrrrrrrrrrrrrrrrrrrrrrrr&# &rrr",
"rrrr#  rrrrrrrrrrrrrrrrrrrrrrrrrrrrrrrrrrrrrrrrrrrrrrrrrr&  rrrr",
"rrrr   rrrrrrrrrrrrrrrrrrrrrrrrrrrrrrrrrrrrrrrrrrrrrrrrrr  #rrrr",
"rrrr3  &rrrrrrrrrrrrrrrrrrrrrrrrrrrrrrrrrrrrrrrrrrrrrrrr   &rrrr",
"rrrrr   8rrrrrrrrrrrrrrrrrrrrrrrrrrrrrrrrrrrrrrrrrrrrrr    rrrrr",
"rrrrr3 # 3rrrrrrrrrrrrrrrrrrrrrrrrrrrrrrrrrrrrrrrrrrrr& # #rrrrr",
"rrrrrr3    rrrrrrrrrrrrrrrrrrrrrrrrrrrrrrrrrrrrrrrrrr &  #rrrrrr",
"rrrrrrr3  & rrrrrrrrrrrrrrrrrrrrrrrrrrrrrrrrrrrrrrrr     rrrrrrr",
"rrrrrrrr&   & rrrrrrrrrrrrrrrrrrrrrrrrrrrrrrrrrrrr3    &rrrrrrrr",
"rrrrrrrrrr&    #8rrrrrrrrrrrrrrrrrrrrrrrrrrrrrr       rrrrrrrrrr",
"rrrrrrrrrrr&&    &&;rrrrrrrrrrrrrrrrrrrrrrrr#3     &3rrrrrrrrrrr",
"rrrrrrrrrrrrr8        &#wrrrrrrrrrrrrrre &&   #  #3rrrrrrrrrrrrr",
"rrrrrrrrrrrrrrrw    @  &    & && & &  #      # 3&rrrrrrrrrrrrrrr",
"rrrrrrrrrrrrrrrrrr33    #  &        #      && rrrrrrrrrrrrrrrrrr",
"rrrrrrrrrrrrrrrrrrrrrr33#&         # &# 0&rrrrrrrrrrrrrrrrrrrrrr",
"rrrrrrrrrrrrrrrrrrrrrrrrrrrrrrrrrrrrrrrrrrrrrrrrrrrrrrrrrrrrrrrr",
"rrrrrrrrrrrrrrrrrrrrrrrrrrrrrrrrrrrrrrrrrrrrrrrrrrrrrrrrrrrrrrrr",
"rrrrrrrrrrrrrrrrrrrrrrrrrrrrrrrrrrrrrrrrrrrrrrrrrrrrrrrrrrrrrrrr",
"rrrrrrrrrrrrrrrrrrrrrrrrrrrrrrrrrrrrrrrrrrrrrrrrrrrrrrrrrrrrrrrr",
"rrrrrrrrrrrrrrrrrrrrrrrrrrrrrrrrrrrrrrrrrrrrrrrrrrrrrrrrrrrrrrrr",
"rrrrrrrrrrrrrrrrrrrrrrrrrrrrrrrrrrrrrrrrrrrrrrrrrrrrrrrrrrrrrrrr",
"rrrrrrrrrrrrrrrrrrrrrrrrrrrrrrrrrrrrrrrrrrrrrrrrrrrrrrrrrrrrrrrr",
"rrrrrrrrrrrrrrrrrrrrrrrrrrrrrrrrrrrrrrrrrrrrrrrrrrrrrrrrrrrrrrrr",
"rrrrrrrrrrrrrrrrrrrrrrrrrrrrrrrrrrrrrrrrrrrrrrrrrrrrrrrrrrrrrrrr",
"rrrrrrrrrrrrrrrrrrrrrrrrrrrrrrrrrrrrrrrrrrrrrrrrrrrrrrrrrrrrrrrr",
"rrrrrrrrrrrrrrrrrrrrrrrrrrrrrrrrrrrrrrrrrrrrrrrrrrrrrrrrrrrrrrrr",
"rrrrrrrrrrrrrrrrrrrrrrrrrrrrrrrrrrrrrrrrrrrrrrrrrrrrrrrrrrrrrrrr",
"rrrrrrrrrrrrrrrrrrrrrrrrrrrrrrrrrrrrrrrrrrrrrrrrrrrrrrrrrrrrrrrr",
"rrrrrrrrrrrrrrrrrrrrrrrrrrrrrrrrrrrrrrrrrrrrrrrrrrrrrrrrrrrrrrrr",
"rrrrrrrrrrrrrrrrrrrrrrrrrrrrrrrrrrrrrrrrrrrrrrrrrrrrrrrrrrrrrrrr",
"rrrrrrrrrrrrrrrrrrrrrrrrrrrrrrrrrrrrrrrrrrrrrrrrrrrrrrrrrrrrrrrr",
"rrrrrrrrrrrrrrrrrrrrrrrrrrrrrrrrrrrrrrrrrrrrrrrrrrrrrrrrrrrrrrrr"
};
