/* XPM */
static char *_555205707930[] = {
/* columns rows colors chars-per-pixel */
"64 64 14 1 ",
"  c black",
". c #010100",
"X c #010101",
"o c #020202",
"O c gray1",
"+ c #040403",
"@ c #040404",
"# c #050504",
"$ c gray2",
"% c #060605",
"& c #070706",
"* c #070707",
"= c gray3",
"- c None",
/* pixels */
"--------------------------------------------------       -------",
"------------------------------------------------          *-----",
"----------------------------------------------              ----",
"---------------------------------------------         * *    ---",
"--------------------------------------------         + +*     --",
"-------------------------------------------         * *        -",
"------------------------------------------          + **       -",
"-----------------------------------------         **+*          ",
"----------------------------------------         +* **          ",
"---------------------------------------         *++*            ",
"----------------------------**--------         * *++            ",
"--------------------------** ** -----         + * *             ",
"-------------------------* *++   ---         * *+*              ",
"-------------------------** *     -         ++*++               ",
"------------------------- ++               ++* +               -",
"-------------------------*+               *+* *                -",
"-------------------------*               + ***               +--",
"--------------------------              ++*+                 ---",
"---------------------------            +* ++                *---",
"----------------------------          +* **               **----",
"-----------------------------        +* *+               +*-----",
"----------------------------        +* *+               +*------",
"---------------------------        ** +*               +&-------",
"--------------------------         * *+               **--------",
"-------------------------      --* *++               +&---------",
"------------------------      ----*++               *&----------",
"-----------------------      ------*               +*-----------",
"----------------------      --------              +*------------",
"---------------------      ----------            +*-------------",
"--------------------      ------------          *+--------------",
"-------------------      --------------        +* *-------------",
"------------------      ----------------      +* *+ ------------",
"-----------------      -----------------     ** **   -----------",
"----------------      -----------------      *++     -----------",
"---------------      -----------------     +** *      ----------",
"--------------      -----------------     +=+++       ----------",
"-------------      -----------------     *---*       -----------",
"------------      -----------------     +-----       -----------",
"-----------      -----------------     *--------   -------------",
"----------      -----------------     +-------------------------",
"---------      -----------------     *--------------------------",
"--------      -----------------     +---------------------------",
"-------      -----------------     *----------------------------",
"------      -----------------     +-----------------------------",
"-----      -----------------     *------------------------------",
"----      -----------------     +-------------------------------",
"---      -----------------     +--------------------------------",
"---     -----------------     +---------------------------------",
"--     -----------------     *----------------------------------",
"--    -----------------     +-----------------------------------",
"--    ----------------     *------------------------------------",
"--    ---------------     +-------------------------------------",
"--    --------------     *--------------------------------------",
"--   *-------------     +---------------------------------------",
"-   * ------------     *----------------------------------------",
"-  * *-----------     +-----------------------------------------",
"   **-----------    * =-----------------------------------------",
"    -----------     *=------------------------------------------",
"   +----           +&-------------------------------------------",
"     --            ---------------------------------------------",
"-                *----------------------------------------------",
"-               ------------------------------------------------",
"--        ------------------------------------------------------",
"----    --------------------------------------------------------"
};
